nColumns=19
nRows=34
DataType=double
version=3
OpenSimVersion=4.4-2022-07-23-0e9fedc
endheader
time	ground_force_1_vx	ground_force_1_vy	ground_force_1_vz	ground_force_1_px	ground_force_1_py	ground_force_1_pz	ground_moment_1_mx	ground_moment_1_my	ground_moment_1_mz	ground_force_2_vx	ground_force_2_vy	ground_force_2_vz	ground_force_2_px	ground_force_2_py	ground_force_2_pz	ground_moment_2_mx	ground_moment_2_my	ground_moment_2_mz
15	6.27E-64	9.91E-63	-1.65E-64	0.8125	0	0.2385	-2.84E-64	1.69E-64	-2.49E-64	-24.80097292	719.0878603	-57.58613727	0.8125	0	0.733	104.8536884	18.52056919	180.5856224
15.01	3.07E-60	4.52E-59	-7.61E-61	0.8125	0	0.2385	-1.31E-60	8.02E-61	-1.13E-60	-18.34536088	731.3389547	-57.00489013	0.8125	0	0.733	107.2059425	16.97398099	175.2034838
15.02	1.35E-56	2.06E-55	-3.40E-57	0.8125	0	0.2385	-5.87E-57	3.48E-57	-5.16E-57	-11.37318479	744.6596071	-56.5821891	0.8125	0	0.733	109.7343232	15.36491128	169.7707042
15.03	6.46E-53	9.42E-52	-1.57E-53	0.8125	0	0.2385	-2.70E-53	1.70E-53	-2.32E-53	-4.235875111	758.6973038	-56.38916035	0.8125	0	0.733	112.338676	13.74515011	164.3917299
15.04	2.86E-49	4.30E-48	-6.88E-50	0.8125	0	0.2385	-1.23E-49	7.75E-50	-1.07E-49	2.682277543	772.7814943	-56.49245855	0.8125	0	0.733	114.8764703	12.17604614	159.1239448
15.05	1.29E-45	1.96E-44	-3.28E-46	0.8125	0	0.2385	-5.58E-46	3.34E-46	-4.89E-46	8.973756785	786.0179278	-56.96934451	0.8125	0	0.733	117.1642956	10.72429132	154.0092623
15.06	5.83E-42	8.96E-41	-1.49E-42	0.8125	0	0.2385	-2.59E-42	1.68E-42	-2.21E-42	14.34893574	797.3165432	-57.81083616	0.8125	0	0.733	119.0082929	9.439642941	149.009039
15.07	2.87E-38	4.09E-37	-6.89E-39	0.8125	0	0.2385	-1.18E-38	7.35E-39	-1.02E-38	18.60864332	805.6409432	-59.00105947	0.8125	0	0.733	120.2306913	8.356407387	144.0815803
15.08	1.21E-34	1.87E-33	-3.05E-35	0.8125	0	0.2385	-5.36E-35	3.48E-35	-4.71E-35	21.69757357	810.1046391	-60.4769212	0.8125	0	0.733	120.7019537	7.482642059	139.1502251
15.09	5.70E-31	8.54E-30	-1.43E-31	0.8125	0	0.2385	-2.43E-31	1.60E-31	-2.14E-31	23.68484374	810.156087	-62.11625916	0.8125	0	0.733	120.3608067	6.806249876	134.1557756
15.1	2.63E-27	3.89E-26	-6.37E-28	0.8125	0	0.2385	-1.11E-27	6.94E-28	-9.78E-28	24.69466219	805.591314	-63.8121032	0.8125	0	0.733	119.2128669	6.304999172	129.0546448
15.11	1.16E-23	1.78E-22	-2.95E-24	0.8125	0	0.2385	-5.12E-24	3.46E-24	-4.43E-24	24.96330535	796.5346313	-65.41644082	0.8125	0	0.733	117.3242205	5.945994378	123.8068585
15.12	5.29E-20	8.11E-19	-1.34E-20	0.8125	0	0.2385	-2.32E-20	1.49E-20	-2.01E-20	24.73919371	783.4120019	-66.81632253	0.8125	0	0.733	114.8087287	5.684791074	118.4076921
15.13	2.46E-16	3.71E-15	-6.15E-17	0.8125	0	0.2385	-1.07E-16	5.90E-17	-9.17E-17	24.34389517	766.8563057	-67.91880278	0.8125	0	0.733	111.8133904	5.470689735	112.8415322
15.14	18.35547408	9.066926687	-1.947815782	0.8125	0	0.2385	-1.690422551	5.030465604	1.009045057	24.05527343	747.6109155	-68.62963127	0.8125	0	0.733	108.4934853	5.250807542	107.1343462
15.15	25.06849551	29.02385504	-4.597972412	0.8125	0	0.2385	-4.153696023	6.914037966	8.981289719	24.11595917	726.3657451	-68.88828895	0.8125	0	0.733	104.9858875	4.983949907	101.3049297
15.16	31.49422821	57.81232574	-7.399389439	0.8125	0	0.2385	-7.676868156	8.801479172	20.45372202	24.70506996	703.6397814	-68.60295377	0.8125	0	0.733	101.3913	4.633244758	95.36695121
15.17	35.94258041	95.89387588	-9.837823116	0.8125	0	0.2385	-12.29524292	10.27273386	35.61709755	25.88065592	679.7252417	-67.68452686	0.8125	0	0.733	97.76146677	4.176603947	89.34000557
15.18	36.40461899	142.5979901	-11.13645928	0.8125	0	0.2385	-17.89719045	10.82592535	54.24312752	27.61614073	654.6293167	-66.06111435	0.8125	0	0.733	94.09846458	3.611964513	83.24126192
15.19	31.73160404	196.516434	-10.60651872	0.8125	0	0.2385	-24.25831315	10.04892228	75.83819117	29.74195483	628.1647182	-63.64759068	0.8125	0	0.733	90.36109003	2.958383955	77.11881333
15.2	22.50125011	255.5856203	-7.63602371	0.8125	0	0.2385	-31.05612273	7.76239327	99.59870314	32.05207707	599.9666351	-60.42802445	0.8125	0	0.733	86.47685637	2.2546369	70.9981684
15.21	10.46671872	316.5479296	-1.753115245	0.8125	0	0.2385	-37.84772611	3.995629253	124.0738056	34.29353552	569.5625058	-56.45345349	0.8125	0	0.733	82.3478553	1.54351211	64.91249305
15.22	-2.63964745	375.2377019	7.018487293	0.8125	0	0.2385	-44.17550745	-0.96921868	147.3123307	36.23201775	536.4070655	-51.85693003	0.8125	0	0.733	77.86401167	0.866625103	58.85080238
15.23	-15.30248907	428.8801351	17.66346005	0.8125	0	0.2385	-49.77997909	-6.5086556	167.9053832	37.64635344	500.0701955	-46.82103031	0.8125	0	0.733	72.92753248	0.26508426	52.82136064
15.24	-26.514928	476.8428195	28.65464681	0.8125	0	0.2385	-54.66585419	-11.92124338	185.4483241	38.30432961	460.4251295	-41.52340502	0.8125	0	0.733	67.48276748	-0.226569032	46.84822534
15.25	-35.90926031	519.8307111	38.81231263	0.8125	0	0.2385	-58.98872953	-16.66538593	200.1804742	38.02444939	417.6773937	-36.17098545	0.8125	0	0.733	61.52845893	-0.580163123	40.96725256
15.26	-43.17735921	558.6444727	47.21112381	0.8125	0	0.2385	-62.92273553	-20.39860941	212.4312231	36.62616053	372.4370358	-30.92705743	0.8125	0	0.733	55.12581673	-0.77679965	35.24376018
15.27	-48.32480962	593.7555074	53.42207764	0.8125	0	0.2385	-66.57591314	-22.95382683	222.4099862	34.01288961	325.6470564	-25.92758411	0.8125	0	0.733	48.39788656	-0.803610191	29.74389133
15.28	-51.26893046	625.0853664	57.34363743	0.8125	0	0.2385	-69.97616408	-24.32817649	230.1867044	30.13998329	278.5902173	-21.31747811	0.8125	0	0.733	41.52494443	-0.652430621	24.59447784
15.29	-52.04917274	652.4200932	59.29361863	0.8125	0	0.2385	-73.09489619	-24.67911437	235.6895745	25.17444742	232.7961717	-17.2293351	0.8125	0	0.733	34.73743199	-0.330550948	19.88023062
15.3	-50.82554646	675.612743	59.84454326	0.8125	0	0.2385	-75.88158424	-24.25221682	239.0324314	19.45682941	189.8438889	-13.77416388	0.8125	0	0.733	28.2819636	0.126789271	15.69292498
15.31	-47.84188374	694.7693402	59.52968369	0.8125	0	0.2385	-78.301805	-23.31087587	240.3078081	13.49415021	151.0769122	-10.99010672	0.8125	0	0.733	22.37705813	0.660196947	12.05985803
15.32	-43.53080533	710.1697729	58.92999839	0.8125	0	0.2385	-80.33081463	-22.1132545	239.8309282	7.837012645	117.28696	-8.827694011	0.8125	0	0.733	17.17153169	1.195666178	8.974526042
15.33	-38.27654666	722.160217	58.50042359	0.8125	0	0.2385	-81.96024654	-20.87130385	237.8443662	2.915261316	88.74352635	-7.188803801	0.8125	0	0.733	12.73332539	1.671877561	6.4168701
